<svg xmlns="http://www.w3.org/2000/svg" xmlns:xlink="http://www.w3.org/1999/xlink" viewBox="0 0 5734.93 1538.32"><style><![CDATA[.A{fill:#1A171B}.B{fill-rule:evenodd;clip-rule:evenodd;fill:#1A171B}.C{fill:#FF4713}]]></style><path class="A" d="M5660.85 632.56L5460.8 827.9l-109.72 100.6-14.64 14.13-11.72 11.9v181.4c0 14.17-4.1 19.32-23.9 19.32h-98.9c-24.7 0-32.94-5.16-32.94-24.48V634.82c0-19.32 9.9-23.8 32.94-23.8h101.36c21.44 0 21.44 6.7 21.44 23.8V796.9l168.07-166.56c20.6-19.34 18.9-19.34 34.6-19.34h112.9c23.88.01 42.84.74 20.57 21.55zM5355.6 934.2l126.5-55.6 204.27 254.36c15.67 19.35 3.32 22.3-18.1 22.3H5551.3c-16.52 0-20.6-2.22-33-17.06l-162.72-204zM2121.83 632.56c8.26 6.7-23.05 95.2-34.6 92.23-19.75-5.22-43.65-14.92-103.8-14.92-75.78 0-131.83 20.82-131.83 104.9v152.38c0 66.15 37.1 94.44 103 94.44 74.15 0 112.08-17.85 131.83-23.07 13.2-2.94 39.56 91.5 30.5 98.94-15.65 10.37-82.42 27.48-175.5 27.48-172.2 0-248.03-75.84-248.03-178.48v-184.4c0-108.5 56.04-199.2 276.04-199.2 102.12 0 140.87 20.05 152.4 29.7zm1454.8 81.8h-71.8c-14.86 0-18.97 2.2-18.97 14.1v402.3c0 19.32-8.23 24.48-32.12 24.48h-90.6c-26.4 0-32.96-2.94-32.96-24.48V728.5c0-11.92-4.15-14.1-18.98-14.1h-120.3c-19.76 0-20.6-6.697-20.6-15.66v-71.38c0-14.1 10.73-16.32 31.28-16.32h418.57c5.94 0 11.12.12 15.48.68l-59 102.67zm1544.65-81.8c8.25 6.7-23.08 95.2-34.6 92.23-19.8-5.22-43.67-14.92-103.8-14.92-75.8 0-131.83 20.82-131.83 104.9v152.38c0 66.15 37.06 94.44 102.97 94.44 74.15 0 112.06-17.85 131.83-23.07 13.2-2.94 39.57 91.5 30.5 98.94-15.66 10.37-82.42 27.48-175.53 27.48-172.17 0-247.98-75.84-247.98-178.48v-184.4c0-108.5 56.02-199.2 276-199.2 102.13 0 140.88 20.05 152.4 29.7z"/><path class="B" d="M2444.72 965.68l-63.43-194.06-63.44 194.06h126.87zm215.05 165.1c8.23 23.75-3.28 24.48-26.36 24.48h-105.5c-19.77 0-20.57-4.42-25.54-19.32l-27.18-80.28h-187.82l-26.36 80.28c-4.97 14.9-8.26 19.32-25.57 19.32h-91.48c-12.32 0-18.93-4.42-11.5-24.48l167.26-495.95c5.75-17.86 12.34-23.8 36.22-23.8h119.48c24.73 0 30.5 5.95 37.07 23.8l167.26 495.95zm351.7-351c0-43.14-42.84-65.4-91.44-65.4h-58.5c-12.34 0-14.86 7.4-14.86 13.378v104.8c0 11.16 3.3 14.17 16.5 14.17h76.63c38.68.01 71.65-21.6 71.65-66.95zm156.56 3.75c0 75.05-59.35 121.15-97.2 134.57-11.55 4.45-10.72 2.95-6.6 11.92l100.5 200c8.26 15.6 9.88 26.03-11.54 25.22h-120.3c-23.05-.73-23.88-8.16-30.46-21.55l-86.5-171.77c-3.32-5.94-5.78-5.94-13.2-5.94h-50.26c-7.4 0-8.22 3-8.22 11.16v164.35c0 19.34-9.1 23.75-31.3 23.75H2709.1c-22.2 0-20.56-8.9-20.56-26.02V630.35c0-14.1 4.12-19.33 24.7-19.33h217.53c156.5 0 237.26 72.1 237.26 172.5zm797.62-3.75c0-43.14-42.86-65.4-91.46-65.4h-58.5c-12.35 0-14.82 7.4-14.82 13.378v104.8c0 11.16 3.3 14.17 16.47 14.17h76.63c38.72.01 71.68-21.6 71.68-66.95zm156.53 3.75c0 75.05-59.3 121.15-97.25 134.57-11.53 4.45-10.66 2.95-6.56 11.92l100.53 200c8.22 15.6 9.87 26.03-11.55 25.22h-120.27c-23.1-.73-23.9-8.16-30.52-21.55l-86.5-171.77c-3.3-5.94-5.77-5.94-13.2-5.94h-50.22c-7.42 0-8.27 3-8.27 11.16v164.35c0 19.34-9.04 23.75-31.3 23.75H3663.3c-22.3 0-20.64-8.9-20.64-26.02V630.35c0-14.1 4.1-19.33 24.74-19.33h217.5c156.54 0 237.28 72.1 237.28 172.5zm332.68 182.15l-63.46-194.06-63.43 194.06h126.9zm215.02 165.1c8.25 23.75-3.3 24.48-26.36 24.48h-105.45c-19.8 0-20.6-4.42-25.54-19.32l-27.18-80.28h-187.87l-26.37 80.28c-4.96 14.9-8.23 19.32-25.53 19.32h-91.45c-12.36 0-18.95-4.42-11.54-24.48l167.23-495.95c5.77-17.86 12.4-23.8 36.3-23.8h119.45c24.7 0 30.47 5.95 37.05 23.8l167.27 495.95z"/><path class="C" d="M836.6 164.97c0 59.1-47.87 106.96-106.97 106.96-59.07 0-106.96-47.86-106.96-106.96 0-59.03 47.9-106.97 106.96-106.97 59.1 0 106.97 47.94 106.97 106.97z"/><path class="A" d="M1251.58 1431.25c-20.92 26.5-51.2 42.33-85.22 42.33-29 0-55.45-11.3-74.73-30l-202.82-203.5c-88.67-88.7-232.45-88.7-321.14 0L372.7 1442.04c-19.5 20.4-47 32.96-77.36 32.96-33.57 0-63.64-15.28-83.28-39.47-93.13-118.8-146.7-243.95-146.7-412.3 0-13.74.4-27.42 1.25-41h206.6c-1 13.5-1.5 27.2-1.5 41.08 0 86.88 20.03 168.4 55.05 239.46l405.87-679.62 401.16 678.76c34.76-70.9 54.6-152.07 54.6-238.6 0-13.9-.5-27.58-1.47-41.08h206.64c.8 13.57 1.22 27.25 1.22 41 .02 165.8-52.12 290.3-143.22 408.02zM74.05 915.54c51.46-315.88 325.57-557 656.06-557 330.42 0 604.57 241.12 656.05 557H1178c-45.24-229.1-231.7-395.9-447.9-395.9s-402.7 166.8-447.9 395.9H74.05z"/><path class="C" d="M1802.14 1409.48c-10.48 8.08-26.83 12.12-49.04 12.12h-13.2c-1.82 0-3 .32-3.56.94s-.84 2-.84 4.07v37.2c0 2.8-.62 4.6-1.87 5.44s-3.26 1.26-6.03 1.26h-26.2c-2.77 0-4.33-.62-4.68-1.88-.34-1.26-.52-3.06-.52-5.44v-140.27c0-1.94.38-3.34 1.15-4.18s2.48-1.26 5.12-1.26h55.2c20.9 0 36.16 4.36 45.78 13.06s14.43 22.13 14.43 40.25c-.01 17.7-5.25 30.6-15.72 38.68zm-26.1-51.2c-1.26-2.64-2.94-4.8-5.04-6.48s-4.55-2.93-7.35-3.77c-2.8-.83-5.74-1.25-8.82-1.25h-14.92c-1.54 0-2.56.42-3.05 1.25-.5.84-.74 1.68-.74 2.5v36.37c0 1.54.28 2.58.84 3.14s1.7.84 3.36.84h17.86c2.52 0 4.97-.42 7.35-1.26s4.48-2.16 6.3-3.97c1.83-1.8 3.3-4.18 4.42-7.1 1.12-2.93 1.68-6.5 1.68-10.67 0-3.76-.63-6.96-1.9-9.6zm241.33 85.06c-2.02 5.58-4.7 10.25-8.05 14.002s-7.1 6.7-11.3 8.78-8.5 3.66-12.96 4.7-8.8 1.7-13.06 2a162.12 162.12 0 0 1-11.4.42c-5.44 0-11.5-.5-18.2-1.46a57.64 57.641 0 0 1-19.02-6.271c-6-3.2-11-7.87-15.05-14-4.04-6.13-6.06-14.43-6.06-24.88v-103.68c0-1.94.38-3.34 1.15-4.18.76-.84 2.26-1.26 4.5-1.26h24.45c2.93 0 5.02.45 6.27 1.36 1.25.9 1.88 2.75 1.88 5.53v89.68c0 8.64 1.9 15.222 5.75 19.75 3.83 4.52 8.53 6.8 14.1 6.8 4.18 0 7.6-.66 10.25-2 2.64-1.32 4.7-3.2 6.17-5.64 1.46-2.44 2.47-5.3 3.03-8.57.55-3.28.84-6.86.84-10.76v-90.73c0-1.94.38-3.34 1.15-4.18.76-.84 2.26-1.26 4.5-1.26h25.7c2.8 0 4.88.45 6.27 1.36 1.4.9 2.1 2.75 2.1 5.53v98.68c0 7.95-1.02 14.7-3.04 20.28zm203.2-98.04c-.5.84-1.98 1.26-4.5 1.26h-31.98c-1.95 0-3.24.25-3.87.73-.63.5-.94 1.57-.94 3.24v113.1c0 2.78-.6 4.63-1.77 5.54-1.18.9-3.3 1.35-6.34 1.35h-22.88c-3.33 0-5.54-.4-6.65-1.15s-1.67-2.7-1.67-5.75v-113.1c0-1.68-.3-2.75-.94-3.24-.62-.48-1.92-.73-3.87-.73h-30.52c-2.5 0-4-.42-4.5-1.26-.5-.83-.73-1.88-.73-3.14v-20.07c0-1.94.66-3.2 2-3.76 1.32-.558 3.3-.84 5.96-.84h105.98c2.5 0 4.46.25 5.85.73 1.4.5 2.1 1.7 2.1 3.66v20.27c.02 1.28-.22 2.33-.7 3.16zm190.64 0c-.5.84-1.98 1.26-4.5 1.26h-31.98c-1.95 0-3.24.25-3.87.73-.63.5-.95 1.57-.95 3.24v113.1c0 2.78-.6 4.628-1.76 5.54-1.18.9-3.3 1.35-6.34 1.35h-22.88c-3.32 0-5.54-.4-6.65-1.148s-1.67-2.7-1.67-5.75v-113.1c0-1.68-.3-2.75-.94-3.24-.62-.48-1.92-.73-3.87-.73h-30.52c-2.5 0-4-.42-4.5-1.26-.5-.83-.73-1.878-.73-3.14v-20.07c0-1.94.66-3.2 2-3.76 1.32-.558 3.3-.84 5.96-.84h106c2.5 0 4.46.25 5.85.73 1.4.5 2.1 1.7 2.1 3.66v20.27c.01 1.28-.23 2.33-.72 3.16zm119.67 124.07c-.83.76-2.43 1.15-4.78 1.15h-25.37c-2.9 0-4.96-.42-6.13-1.26-1.18-.84-1.77-2.58-1.77-5.218v-140.7c0-2.36.45-3.93 1.35-4.7.9-.76 2.95-1.15 6.13-1.15h26.4c2.35 0 3.85.53 4.47 1.57s.93 2.75.93 5.12v141.1c.01 1.96-.4 3.33-1.24 4.1zm218.22.2c-.55 1.47-2 2.13-4.36 2l-21.82-.62c-2.36-.14-4.16-.6-5.4-1.36-1.25-.76-2.43-2.12-3.53-4.07l-48.28-77.34c-1.4-2.37-2.5-3.7-3.35-3.97s-1.26 1.12-1.26 4.18v74.84c0 3.06-.38 5.05-1.15 5.96-.77.9-2.75 1.35-5.96 1.35h-23.83c-.83 0-1.67-.17-2.5-.53-.83-.34-1.54-.93-2.1-1.77s-.84-2.1-.84-3.76V1324.2c0-.28.03-.76.1-1.46a9.07 9.073 0 0 1 .52-2.199c.28-.76.76-1.46 1.47-2.08.7-.63 1.6-.94 2.72-.94h21.95l4.18.2c.98.13 1.77.4 2.4.73s1.1.8 1.47 1.35c.34.56.86 1.26 1.56 2.1l48.7 79.64c1.1 1.96 2.12 2.8 3.03 2.5s1.36-2.16 1.36-5.65v-74.2c0-1.54.38-3.1 1.14-4.698s2.04-2.27 3.85-2h25.56c2.08 0 3.46.558 4.16 1.68s1.04 2.86 1.04 5.218v138.8c-.01 2.8-.3 4.9-.85 6.36zm210.2-28c-1.18 5.78-3.7 11.04-7.52 15.78s-9.44 8.57-16.83 11.5c-7.4 2.93-17.28 4.4-29.68 4.4-12 0-22.05-1.4-30.2-4.18-8.15-2.8-14.67-6.58-19.55-11.4-4.88-4.8-8.36-10.38-10.45-16.73-2.1-6.34-3.14-13.13-3.14-20.38v-46.82c0-7.946.94-15.44 2.82-22.47 1.9-7.04 5.4-13.23 10.56-18.6 5.15-5.357 12.26-9.6 21.32-12.75 9.05-3.14 20.76-4.697 35.12-4.697 6.83 0 12.72.4 17.66 1.146 4.95.77 9.1 1.68 12.43 2.72 3.35 1.04 5.96 2.1 7.84 3.14s3.17 1.92 3.87 2.6c.56.56.53 2.3-.1 5.23-.62 2.92-1.5 6-2.6 9.2s-2.33 6.03-3.65 8.46c-1.33 2.44-2.4 3.45-3.24 3.03a110.18 110.183 0 0 0-4.29-1.77c-1.6-.62-3.52-1.2-5.75-1.77s-4.88-1-7.94-1.36c-3.07-.34-6.7-.53-10.87-.53-4.6 0-8.88.4-12.86 1.15-3.97.77-7.42 2.27-10.34 4.5-2.93 2.22-5.26 5.44-7 9.603-1.75 4.18-2.6 9.6-2.6 16.3v39.297c0 10.03 1.6 17.42 4.8 22.16s9 7.1 17.35 7.1c7.25 0 12.26-1.5 15.05-4.5 2.8-3 4.18-7.2 4.18-12.64v-15.67c0-1.12-.18-2.13-.53-3.04-.35-.9-1.5-1.43-3.45-1.57h-10.45c-1.54 0-2.6-.24-3.24-.73-.63-.48-.94-1.7-.94-3.65v-16.52c0-1.1.1-2.12.3-3.03.2-.9 1.08-1.35 2.62-1.35h43.7c4.18 0 6.8.52 7.84 1.57 1.04 1.043 1.57 3.37 1.57 7v33.02c0 5.7-.6 11.46-1.78 17.24zm327.87-112.97l-6.8 12.02-9.2 16.4-10.03 17.77-9.3 16.3-9.2 16.52v57.06c0 2.37-.62 3.94-1.87 4.7-1.26.76-3.33 1.15-6.24 1.15h-25.37c-2.35 0-3.9-.34-4.67-1.04s-1.15-1.95-1.15-3.77v-58.32l-49.75-84.03c-1.68-2.78-1.92-4.46-.73-5.02 1.18-.56 3.03-.84 5.53-.84h29.48c2.64 0 4.36.345 5.12 1.04s1.85 2.24 3.24 4.6l30.8 53.72 10.6-19.02 8.96-15.895 10.67-18.8 1.68-2.72c.42-.7.9-1.26 1.46-1.68s1.26-.73 2.08-.95c.84-.2 2.02-.3 3.56-.3h19.02c2.8 0 4.74.28 5.85.84 1.12.56.76 2.44-1.04 5.64-.15.157-1.06 1.68-2.72 4.62zm201.4 115.58c-2.16 5.7-5.02 10.45-8.57 14.2-3.55 3.77-7.52 6.63-11.9 8.57-4.4 1.95-8.85 3.42-13.37 4.4-4.53.97-8.88 1.53-13.07 1.68l-10.66.2c-3.34 0-7.14-.14-11.4-.42-4.25-.28-8.6-.87-13.06-1.77s-8.85-2.33-13.17-4.3a38.4 38.401 0 0 1-11.49-7.95c-3.35-3.34-6.03-7.52-8.05-12.54-2.03-5.02-3.04-11.15-3.04-18.4v-60.2c0-18.682 4.8-32.1 14.43-40.24 9.6-8.15 24.18-12.23 43.7-12.23 7.95 0 15.68.8 23.2 2.4 7.53 1.6 14.25 4.43 20.17 8.46 5.93 4.04 10.67 9.498 14.22 16.4s5.33 15.56 5.33 26.02v54.57c-.01 8.37-1.1 15.4-3.25 21.12zm-36.48-72.74c0-7.53-1.74-13.45-5.22-17.77-3.5-4.32-8.7-6.48-15.68-6.48-4.46 0-8.1.7-10.97 2.08-2.86 1.4-5.1 3.2-6.7 5.43s-2.72 4.8-3.34 7.73a42.67 42.67 0 0 0-.95 8.99v45.15c0 4.18.62 7.8 1.88 10.87s2.9 5.57 4.92 7.532c2 1.95 4.32 3.37 6.9 4.298 2.58.9 5.2 1.35 7.84 1.35 7.1 0 12.43-2.02 15.98-6.06 3.56-4.04 5.33-10.73 5.33-20.07v-43.04zm244.7 71.9c-2.03 5.58-4.7 10.25-8.06 14.003-3.34 3.757-7.1 6.7-11.28 8.78-4.2 2.1-8.5 3.66-12.97 4.7-4.46 1.04-8.82 1.7-13.06 2-4.25.28-8.05.42-11.4.42-5.43 0-11.5-.5-18.2-1.46a57.64 57.641 0 0 1-19.02-6.271c-6-3.2-11-7.87-15.05-14-4.04-6.13-6.06-14.43-6.06-24.88v-103.68c0-1.94.38-3.34 1.15-4.18.76-.84 2.27-1.26 4.5-1.26h24.46c2.93 0 5.02.452 6.27 1.36 1.26.9 1.88 2.75 1.88 5.53v89.68c0 8.64 1.9 15.222 5.75 19.75 3.83 4.52 8.54 6.8 14.1 6.8 4.18 0 7.6-.66 10.24-2 2.65-1.32 4.7-3.2 6.17-5.64s2.48-5.3 3.04-8.57c.55-3.28.83-6.86.83-10.76v-90.73c0-1.94.4-3.34 1.15-4.18.77-.84 2.27-1.26 4.5-1.26h25.7c2.8 0 4.88.45 6.27 1.36 1.4.9 2.1 2.75 2.1 5.532v98.68c.01 7.95-1 14.7-3.02 20.28zm245.08 26.03c-.84.76-2.43 1.15-4.78 1.15h-25.37c-2.9 0-4.95-.42-6.13-1.26s-1.76-2.58-1.76-5.217v-140.7c0-2.36.45-3.93 1.35-4.7.9-.76 2.94-1.15 6.13-1.15h26.4c2.35 0 3.85.53 4.47 1.57s.93 2.75.93 5.12v141.1c0 1.96-.42 3.33-1.24 4.1z"/><use xlink:href="#B" class="C"/><path class="C" d="M4474.7 1326.18c-.14 1.46-.45 3.17-.94 5.12l-1.78 6.26-2.2 6.07c-.77 1.8-1.54 3.28-2.3 4.38-.77 1.12-1.36 1.6-1.78 1.47l-4.07-1.36c-1.46-.48-3.2-.93-5.23-1.35s-4.43-.77-7.2-1.05c-2.8-.28-6.06-.42-9.83-.42-4.88 0-9.34.42-13.37 1.26-4.04.84-7.56 2.37-10.56 4.6s-5.33 5.26-7 9.1-2.5 8.67-2.5 14.52v42.86c0 9.33 2.27 16.1 6.8 20.27 4.53 4.18 10.98 6.27 19.33 6.27 4.74 0 8.88-.28 12.44-.84s6.7-1.18 9.4-1.88 5.02-1.38 6.9-2.1l4.7-1.67c.84-.14 1.8 1.12 2.92 3.76 1.12 2.65 2.13 5.68 3.04 9.1.9 3.42 1.56 6.62 1.98 9.6.42 3 .35 4.77-.2 5.33-1.96 1.54-6.9 3.2-14.85 5.02-7.94 1.8-17.84 2.72-29.68 2.72-10.87 0-20.28-1.26-28.22-3.76-7.95-2.5-14.5-6-19.65-10.45-5.17-4.46-8.96-9.75-11.4-15.9-2.44-6.13-3.66-12.83-3.66-20.07v-51.85c0-7.66 1.05-14.87 3.14-21.63s5.76-12.68 10.98-17.77c5.23-5.08 12.36-9.12 21.43-12.12 9.06-3 20.55-4.5 34.5-4.5 6.4 0 11.9.3 16.5.95 4.6.62 8.4 1.35 11.4 2.2 3 .84 5.36 1.74 7.1 2.72s2.96 1.82 3.66 2.5c.27.28.34 1.15.2 2.6zm203.5 118c-2.16 5.7-5.02 10.45-8.57 14.2-3.55 3.77-7.52 6.63-11.9 8.57-4.4 1.95-8.85 3.42-13.37 4.4-4.53.97-8.88 1.53-13.07 1.68l-10.66.2c-3.34 0-7.14-.14-11.4-.42-4.25-.28-8.6-.87-13.06-1.77s-8.85-2.33-13.17-4.3a38.4 38.401 0 0 1-11.49-7.95c-3.35-3.34-6.03-7.52-8.05-12.54-2.03-5.02-3.04-11.15-3.04-18.4v-60.2c0-18.682 4.8-32.1 14.43-40.24 9.6-8.15 24.18-12.23 43.7-12.23 7.95 0 15.68.8 23.2 2.4 7.53 1.6 14.25 4.43 20.17 8.46 5.93 4.04 10.67 9.498 14.22 16.4 3.54 6.9 5.33 15.56 5.33 26.02v54.57c0 8.37-1.1 15.4-3.25 21.12zm-36.48-72.74c0-7.53-1.74-13.45-5.22-17.77-3.5-4.32-8.7-6.48-15.68-6.48-4.46 0-8.1.7-10.97 2.08-2.86 1.4-5.1 3.2-6.7 5.43s-2.72 4.8-3.34 7.73a42.67 42.67 0 0 0-.95 8.99v45.15c0 4.18.62 7.8 1.88 10.87s2.9 5.57 4.92 7.532a18.99 18.99 0 0 0 6.9 4.298c2.58.9 5.2 1.35 7.84 1.35 7.1 0 12.43-2.02 15.98-6.06 3.56-4.04 5.33-10.73 5.33-20.07v-43.04z"/><use xlink:href="#B" x="736.44" class="C"/><path class="C" d="M5099.82 1345.3c-.48.84-2 1.26-4.5 1.26h-32c-1.94 0-3.23.25-3.87.73-.62.5-.94 1.57-.94 3.24v113.1c0 2.78-.6 4.63-1.77 5.54-1.18.9-3.3 1.35-6.34 1.35h-22.88c-3.32 0-5.54-.4-6.65-1.15s-1.66-2.7-1.66-5.75v-113.1c0-1.68-.3-2.75-.94-3.24-.63-.48-1.92-.73-3.87-.73h-30.53c-2.5 0-4-.42-4.5-1.26-.5-.83-.73-1.88-.73-3.14v-20.07c0-1.94.66-3.2 2-3.76 1.32-.56 3.3-.84 5.95-.84h106c2.5 0 4.46.25 5.85.73 1.4.5 2.08 1.7 2.08 3.66v20.27c.02 1.28-.22 2.33-.7 3.16zm200.78 35.02c-1.68 4.25-3.76 7.94-6.27 11.08-2.5 3.14-5.2 5.75-8.05 7.84s-5.47 3.63-7.84 4.6c-1.54.7-2.33 1.12-2.4 1.26-.06.14.17.84.73 2.1l25.5 56.22c1.1 2.24 1.6 4 1.46 5.34-.14 1.32-1.6 1.9-4.4 1.77h-30.6c-2.93-.14-4.75-.7-5.45-1.68-.7-.97-1.47-2.44-2.3-4.38l-22-48.3c-.4-.83-.84-1.32-1.26-1.46s-1.12-.2-2.1-.2h-12.78c-.98 0-1.57.24-1.78.73-.2.48-.3 1.3-.3 2.4v46.2c0 2.8-.62 4.6-1.87 5.44s-3.27 1.26-6.03 1.26h-26.2c-2.78 0-4.34-.62-4.68-1.88s-.52-3.06-.52-5.44v-140.27c0-1.94.38-3.34 1.15-4.18.76-.84 2.47-1.26 5.1-1.26h55.2c9.9 0 18.6 1.22 26.12 3.66 7.53 2.44 13.8 5.78 18.82 10.03a41.69 41.69 0 0 1 11.4 15.249c2.58 5.93 3.87 12.44 3.87 19.55.01 5.3-.82 10.08-2.5 14.33zm-39.1-23.42c-1.26-2.3-2.98-4.2-5.15-5.75-2.17-1.53-4.66-2.68-7.46-3.45-2.8-.76-5.75-1.148-8.83-1.148h-14.9c-1.55 0-2.56.418-3.05 1.26s-.73 1.68-.73 2.5v29.48c0 1.54.27 2.6.84 3.14.56.56 1.68.84 3.36.84h19.53c4.9 0 9.17-1.54 12.82-4.6 3.64-3.06 5.47-7.8 5.47-14.2 0-3.07-.63-5.76-1.9-8.06zm247.83 87.28c-2.16 5.7-5.02 10.45-8.57 14.2-3.55 3.77-7.52 6.63-11.9 8.57-4.4 1.95-8.85 3.42-13.37 4.4-4.53.97-8.88 1.53-13.07 1.68l-10.66.2c-3.34 0-7.14-.14-11.4-.42-4.25-.28-8.6-.87-13.06-1.77s-8.85-2.33-13.17-4.3a38.4 38.401 0 0 1-11.49-7.95c-3.35-3.34-6.03-7.52-8.05-12.54-2.03-5.02-3.04-11.15-3.04-18.4v-60.2c0-18.682 4.8-32.1 14.43-40.24 9.6-8.15 24.18-12.23 43.7-12.23 7.95 0 15.68.8 23.2 2.4 7.53 1.6 14.25 4.43 20.17 8.46 5.93 4.04 10.67 9.498 14.22 16.4 3.54 6.9 5.33 15.56 5.33 26.02v54.57c-.01 8.37-1.1 15.4-3.25 21.12zm-36.48-72.74c0-7.53-1.74-13.45-5.22-17.77-3.5-4.32-8.7-6.48-15.68-6.48-4.46 0-8.1.7-10.97 2.08-2.86 1.4-5.1 3.2-6.7 5.43s-2.72 4.8-3.34 7.73a42.67 42.67 0 0 0-.95 8.99v45.15c0 4.18.62 7.8 1.88 10.87s2.9 5.57 4.92 7.532a18.99 18.99 0 0 0 6.9 4.298c2.58.9 5.2 1.35 7.84 1.35 7.1 0 12.43-2.02 15.98-6.06 3.56-4.04 5.33-10.73 5.33-20.07v-43.04zm220.85 98.36c-1.32.48-3.23.73-5.75.73h-79.25c-2.77 0-4.37-.56-4.78-1.68-.42-1.1-.62-3-.62-5.64v-140.27c0-1.94.4-3.34 1.25-4.18.83-.84 2.42-1.26 4.78-1.26h24.95c3.05 0 5.2.45 6.45 1.357 1.25.9 1.87 2.75 1.87 5.53v113.3c0 1.67.4 2.75 1.15 3.23.76.5 2 .74 3.66.74h43.06c2.64 0 4.18.4 4.6 1.25s.62 2.02.62 3.56v19.23c0 2.24-.67 3.6-2 4.1z"/><defs ><path id="B" d="M4160.1 1469.57c-.56 1.47-2 2.13-4.36 2l-21.83-.62c-2.35-.14-4.16-.6-5.4-1.36-1.25-.76-2.43-2.12-3.53-4.07l-48.28-77.34c-1.4-2.37-2.5-3.7-3.35-3.97-.83-.28-1.25 1.12-1.25 4.18v74.84c0 3.06-.4 5.05-1.15 5.96-.77.9-2.76 1.35-5.96 1.35h-23.82c-.84 0-1.68-.17-2.5-.53-.84-.34-1.54-.93-2.08-1.77-.56-.84-.84-2.1-.84-3.76V1324.2c0-.28.03-.76.1-1.46.08-.7.25-1.43.53-2.2.28-.76.76-1.46 1.46-2.08.7-.63 1.6-.94 2.72-.94h21.96c1.8 0 3.2.07 4.18.2.97.14 1.77.4 2.4.73a4.05 4.05 0 0 1 1.46 1.35c.34.56.87 1.26 1.57 2.1l48.7 79.64c1.12 1.96 2.13 2.8 3.03 2.5s1.36-2.16 1.36-5.65v-74.2c0-1.54.38-3.1 1.14-4.7s2.04-2.27 3.85-2h25.57c2.07 0 3.46.56 4.16 1.68.7 1.12 1.03 2.86 1.03 5.22v138.8c-.04 2.8-.32 4.9-.87 6.36z"/></defs></svg>